<?xml version="1.0" encoding="UTF-8"?>
<svg xmlns="http://www.w3.org/2000/svg" xmlns:xlink="http://www.w3.org/1999/xlink" id="Layer_2" data-name="Layer 2" viewBox="0 0 50.33 33.19">
  <defs>
    <style>
      .cls-1 {
        fill: #ed2d30;
      }

      .cls-1, .cls-2, .cls-3, .cls-4, .cls-5, .cls-6, .cls-7, .cls-8, .cls-9, .cls-10, .cls-11, .cls-12, .cls-13 {
        stroke-width: 0px;
      }

      .cls-2 {
        fill: #109b4d;
      }

      .cls-3 {
        fill: url(#linear-gradient);
      }

      .cls-4 {
        fill: url(#linear-gradient-4);
      }

      .cls-5 {
        fill: url(#linear-gradient-2);
      }

      .cls-6 {
        fill: url(#linear-gradient-3);
      }

      .cls-7 {
        fill: url(#linear-gradient-8);
      }

      .cls-8 {
        fill: url(#linear-gradient-7);
      }

      .cls-9 {
        fill: url(#linear-gradient-5);
      }

      .cls-10 {
        fill: url(#linear-gradient-6);
      }

      .cls-11 {
        fill: #0d9c4d;
      }

      .cls-12 {
        fill: #fff;
      }

      .cls-13 {
        fill: #ffca27;
      }
    </style>
    <linearGradient id="linear-gradient" x1="39.22" y1="-.01" x2="36.28" y2="6.42" gradientUnits="userSpaceOnUse">
      <stop offset=".11" stop-color="#109b4d"></stop>
      <stop offset=".44" stop-color="#088561"></stop>
      <stop offset=".9" stop-color="#0062ac"></stop>
    </linearGradient>
    <linearGradient id="linear-gradient-2" x1="35.35" y1=".38" x2="39.94" y2="11.75" gradientUnits="userSpaceOnUse">
      <stop offset=".22" stop-color="#109b4d"></stop>
      <stop offset=".5" stop-color="#446d34"></stop>
      <stop offset=".77" stop-color="#e81f26"></stop>
    </linearGradient>
    <linearGradient id="linear-gradient-3" x1="32.05" y1="1.71" x2="48.36" y2="17.84" gradientUnits="userSpaceOnUse">
      <stop offset=".15" stop-color="#09a24c"></stop>
      <stop offset=".52" stop-color="#10838f"></stop>
      <stop offset=".89" stop-color="#0065ad"></stop>
    </linearGradient>
    <linearGradient id="linear-gradient-4" x1="30.74" y1=".8" x2="47.4" y2="22.4" gradientUnits="userSpaceOnUse">
      <stop offset=".15" stop-color="#0d9c4d"></stop>
      <stop offset=".52" stop-color="#11868a"></stop>
      <stop offset=".84" stop-color="#1f5da7"></stop>
    </linearGradient>
    <linearGradient id="linear-gradient-5" x1="35.66" y1="12.63" x2="39" y2="28.91" gradientUnits="userSpaceOnUse">
      <stop offset=".3" stop-color="#ffca27"></stop>
      <stop offset=".62" stop-color="#f37a29"></stop>
      <stop offset=".92" stop-color="#e81f26"></stop>
    </linearGradient>
    <linearGradient id="linear-gradient-6" x1="40.37" y1="16.08" x2="41.4" y2="28.12" gradientUnits="userSpaceOnUse">
      <stop offset=".15" stop-color="#e81f26"></stop>
      <stop offset=".84" stop-color="#46b449"></stop>
    </linearGradient>
    <linearGradient id="linear-gradient-7" x1="40.55" y1="15.22" x2="44.21" y2="24.74" xlink:href="#linear-gradient-6"></linearGradient>
    <linearGradient id="linear-gradient-8" x1="36.19" y1="7.11" x2="50.01" y2="15.71" gradientUnits="userSpaceOnUse">
      <stop offset=".11" stop-color="#195da7"></stop>
      <stop offset=".51" stop-color="#0a7387"></stop>
      <stop offset=".92" stop-color="#11934a"></stop>
    </linearGradient>
  </defs>
  <g id="Layer_1-2" data-name="Layer 1">
    <g>
      <path class="cls-12" d="M12.08,28.61c-.82.43-1.67.74-2.56.92-.89.19-1.8.28-2.72.28-.98,0-1.89-.15-2.72-.46-.83-.31-1.55-.75-2.15-1.32-.6-.58-1.08-1.27-1.41-2.09-.34-.82-.51-1.73-.51-2.74s.17-1.92.51-2.74c.34-.82.81-1.51,1.41-2.09.6-.58,1.32-1.02,2.15-1.33.83-.31,1.74-.46,2.72-.46s1.94.12,2.78.36c.85.24,1.59.66,2.23,1.25l-1.96,2.13c-.38-.39-.81-.69-1.28-.89-.47-.2-1.07-.3-1.78-.3-.59,0-1.13.1-1.61.3-.48.2-.89.48-1.24.84-.34.36-.61.79-.79,1.29-.18.5-.28,1.04-.28,1.62s.09,1.14.28,1.63c.18.49.45.92.79,1.28.34.36.76.64,1.24.84.48.2,1.02.3,1.61.3s1.13-.07,1.57-.2c.44-.14.79-.28,1.05-.42v-2.05h-3.37l2.27-2.56h3.77v6.58Z"></path>
      <path class="cls-12" d="M13.04,26.67l4.89-4.39c.25-.23.5-.48.75-.76.25-.28.37-.62.37-1,0-.43-.15-.76-.46-1-.31-.24-.67-.36-1.08-.36-.5,0-.89.15-1.16.46-.28.31-.44.69-.47,1.14l-2.67-.2c.04-.65.17-1.22.41-1.7.24-.48.55-.88.94-1.2.39-.32.85-.56,1.38-.72.53-.16,1.1-.24,1.72-.24.57,0,1.1.08,1.6.24s.93.4,1.3.71c.37.31.66.71.86,1.18.21.47.31,1.03.31,1.65,0,.4-.04.77-.12,1.09-.08.33-.2.62-.35.89-.15.27-.32.51-.52.74-.2.23-.42.44-.66.66l-3.82,3.29h5.58v2.35h-8.79v-2.83Z"></path>
      <path class="cls-12" d="M25.11,23.2c0,.59.09,1.14.28,1.63.18.49.45.92.79,1.28.34.36.76.64,1.24.84.48.2,1.02.3,1.61.3s1.13-.1,1.61-.3c.48-.2.89-.48,1.24-.84.34-.36.61-.79.79-1.28.18-.49.28-1.03.28-1.63s-.09-1.12-.28-1.62c-.18-.5-.45-.93-.79-1.29-.34-.36-.76-.64-1.24-.84-.48-.2-1.02-.3-1.61-.3s-1.13.1-1.61.3c-.48.2-.89.48-1.24.84-.34.36-.61.79-.79,1.29-.18.5-.28,1.04-.28,1.62M22.23,23.2c0-1.01.17-1.92.51-2.74s.81-1.51,1.41-2.09c.6-.57,1.32-1.02,2.15-1.33.83-.31,1.74-.46,2.72-.46s1.89.15,2.72.46c.83.31,1.55.75,2.15,1.33.6.58,1.08,1.27,1.41,2.09.34.82.51,1.73.51,2.74s-.17,1.92-.51,2.74c-.34.82-.81,1.51-1.41,2.09-.6.58-1.32,1.02-2.15,1.32-.83.31-1.74.46-2.72.46s-1.89-.15-2.72-.46c-.83-.31-1.55-.75-2.15-1.32-.6-.57-1.08-1.27-1.41-2.09-.34-.82-.51-1.73-.51-2.74"></path>
      <g>
        <path class="cls-12" d="M13.53,32.74h.41c.06,0,.12,0,.18-.01s.13-.02.18-.05c.05-.03.1-.06.14-.11.04-.05.05-.11.05-.2,0-.13-.04-.23-.13-.28-.09-.05-.22-.08-.41-.08h-.43v.73ZM13.53,31.63h.41c.15,0,.26-.03.34-.09.07-.06.11-.14.11-.23,0-.11-.04-.19-.12-.24-.08-.05-.2-.08-.37-.08h-.37v.64ZM13.08,30.6h.99c.1,0,.19.01.28.03.09.02.18.06.25.11.07.05.13.12.18.2.05.08.07.18.07.29,0,.14-.04.26-.12.35-.08.09-.19.16-.32.2h0c.08.02.15.04.22.07.07.03.13.08.17.13.05.05.09.12.11.19.03.07.04.15.04.23,0,.14-.03.25-.08.34-.05.09-.13.17-.22.22-.09.06-.19.1-.31.12-.12.02-.23.04-.35.04h-.91v-2.53Z"></path>
        <path class="cls-12" d="M16.27,31.67c.06,0,.13,0,.19,0,.06,0,.12-.02.18-.04.05-.02.1-.06.13-.1.03-.05.05-.11.05-.19,0-.07-.02-.13-.05-.18-.03-.05-.07-.08-.12-.1-.05-.02-.11-.04-.17-.04-.06,0-.12-.01-.18-.01h-.39v.69h.35ZM15.47,30.6h.88c.12,0,.24.01.35.03.11.02.21.06.3.12.09.05.16.13.21.22.05.09.08.21.08.35,0,.18-.05.34-.15.46-.1.12-.25.2-.43.22l.67,1.12h-.54l-.59-1.07h-.33v1.07h-.45v-2.53Z"></path>
        <path class="cls-12" d="M19.18,32.17l-.39-1.03-.4,1.03h.79ZM18.6,30.6h.39l1.09,2.53h-.51l-.24-.58h-1.1l-.23.58h-.5l1.1-2.53Z"></path>
        <path class="cls-12" d="M21.67,31.14c-.05-.07-.11-.12-.19-.15-.08-.03-.16-.05-.25-.05-.05,0-.1,0-.15.02s-.09.03-.13.06c-.04.03-.07.06-.09.1-.02.04-.04.09-.04.15,0,.09.03.15.09.2.06.05.13.08.22.12.09.03.18.07.29.1.1.03.2.07.29.13.09.05.16.13.22.22.06.09.09.21.09.36,0,.14-.03.25-.07.36-.05.1-.12.18-.2.25-.08.07-.18.12-.29.15-.11.03-.23.05-.35.05-.16,0-.31-.03-.45-.08-.15-.05-.27-.14-.37-.26l.34-.33c.05.08.13.15.22.19.09.05.18.07.28.07.05,0,.1,0,.16-.02.05-.01.1-.04.14-.06.04-.03.08-.06.1-.11.03-.04.04-.09.04-.15,0-.09-.03-.16-.09-.21-.06-.05-.13-.09-.22-.13-.09-.03-.18-.07-.29-.1-.1-.03-.2-.07-.29-.13-.09-.05-.16-.12-.22-.21-.06-.09-.09-.21-.09-.36,0-.13.03-.24.08-.34.05-.1.12-.17.21-.24.09-.06.19-.11.3-.14.11-.03.23-.05.34-.05.13,0,.26.02.39.06.12.04.24.11.34.2l-.33.35Z"></path>
        <rect class="cls-12" x="22.55" y="30.6" width=".45" height="2.53"></rect>
        <polygon class="cls-12" points="23.62 30.6 24.07 30.6 24.07 32.72 25.14 32.72 25.14 33.13 23.62 33.13 23.62 30.6"></polygon>
        <path class="cls-12" d="M26.6,32.68l.98-.95s.06-.06.09-.09c.03-.03.06-.07.08-.1.03-.04.05-.07.06-.11.02-.04.03-.08.03-.12,0-.05-.01-.1-.03-.14-.02-.04-.05-.07-.08-.1-.03-.03-.07-.05-.12-.07-.04-.02-.09-.02-.14-.02-.11,0-.2.03-.26.09-.07.06-.11.15-.12.25l-.45-.04c0-.12.04-.22.08-.31.05-.09.11-.16.18-.22.07-.06.16-.1.26-.14.1-.03.2-.05.32-.05s.22.01.32.04c.1.03.18.07.26.13s.13.13.17.22c.04.09.06.2.06.32,0,.16-.04.3-.11.41-.07.12-.17.23-.28.33l-.78.72h1.17v.39h-1.69v-.45Z"></path>
        <path class="cls-12" d="M29.07,31.87c0,.08,0,.17.02.27.01.1.03.2.07.29.03.09.08.17.15.24.06.06.15.1.26.1s.19-.03.26-.1c.06-.06.11-.14.15-.24.03-.09.06-.19.07-.29.01-.1.02-.19.02-.27s0-.17-.02-.27c-.01-.1-.03-.2-.07-.29-.03-.09-.08-.17-.15-.24-.06-.06-.15-.1-.26-.1s-.19.03-.26.1c-.06.06-.11.14-.15.24-.03.09-.06.19-.07.29-.01.1-.02.19-.02.27M28.65,31.87c0-.2.02-.37.05-.51.03-.14.07-.26.13-.36.05-.1.11-.17.18-.23.07-.06.13-.1.2-.13.07-.03.13-.05.2-.06.06,0,.12-.01.17-.01s.1,0,.17.01c.06,0,.13.03.2.06.07.03.13.07.2.13.07.06.12.14.18.23.05.1.09.22.13.36.03.14.05.31.05.51s-.02.37-.05.51c-.03.14-.07.26-.13.36-.05.1-.11.17-.18.23-.07.06-.13.1-.2.13-.07.03-.13.05-.2.06-.06,0-.12.01-.17.01s-.1,0-.17-.01c-.06,0-.13-.03-.2-.06-.07-.03-.13-.07-.2-.13-.07-.06-.12-.14-.18-.23-.05-.1-.09-.22-.13-.36-.03-.14-.05-.31-.05-.51"></path>
        <path class="cls-12" d="M30.83,32.68l.98-.95s.06-.06.09-.09c.03-.03.06-.07.08-.1.03-.04.05-.07.06-.11.02-.04.03-.08.03-.12,0-.05-.01-.1-.03-.14-.02-.04-.05-.07-.08-.1-.03-.03-.07-.05-.12-.07-.04-.02-.09-.02-.14-.02-.11,0-.2.03-.26.09-.07.06-.11.15-.12.25l-.45-.04c0-.12.04-.22.08-.31.05-.09.11-.16.18-.22.07-.06.16-.1.26-.14.1-.03.2-.05.32-.05s.22.01.32.04c.1.03.18.07.26.13s.13.13.17.22c.04.09.06.2.06.32,0,.16-.04.3-.11.41-.07.12-.17.23-.28.33l-.78.72h1.17v.39h-1.69v-.45Z"></path>
        <path class="cls-12" d="M34,31.21h0l-.63,1.02h.64v-1.02ZM34,32.62h-1.07v-.42l1.02-1.59h.49v1.63h.37v.39h-.37v.51h-.43v-.51Z"></path>
      </g>
      <g>
        <path class="cls-3" d="M38.24,0c-2.65,3.57-1.94,6.83-1.94,6.83.77-3.01,4.18-6.83,4.18-6.83h-2.23Z"></path>
        <path class="cls-5" d="M35.5,0c-1.66,2.3-1.41,5.7.58,8.24,1.99,2.53,4.73,3.68,4.73,3.68-3.82-2-5.01-4.22-4.93-7.19.07-2.9,2.1-4.73,2.1-4.73h-2.48Z"></path>
        <path class="cls-6" d="M32.27,0c-1.93,4.28,1.04,7.49,3.93,9.95,3.05,2.6,5.06,2.98,8.43,4.31s4.43,3.5,4.43,3.5c0-.03.77-.85.77-.85-2.29-3.49-6.74-3.46-10.55-5.51-2.54-1.36-4.56-3.55-5.35-6.5-.78-2.96.67-4.91.67-4.91h-2.34Z"></path>
        <path class="cls-4" d="M31.15,6.88c1.82,3.05,4.72,4.82,6.26,5.79,1.55.97,3.58,1.98,5.25,3.36,1.67,1.38,4,4.2,4.12,7l.97-1.76s-.63-2.8-3.4-5.23c-1.99-1.75-4.84-2.55-7.78-4.97,1.04.84,3.8,2.19,6.95,3.81,3.47,1.78,4.4,4.07,4.4,4.07l.61-.64s-.8-1.62-2.66-2.83c-2.12-1.38-2.54-1.45-5.59-2.76-3.41-1.46-5.86-3.89-8.05-6.35-2.31-2.6-1.55-5.5-1.55-5.5,0,0-1.36,2.95.46,6"></path>
        <path class="cls-1" d="M30.27,3.84c0,1.63.29,3.9,3.7,6.77,3.22,2.7,8.53,4.58,9.48,9.82.58,3.22-1.59,6.76-3.8,9.02h-1.25s7.29-6.14,3.16-12c-3.22-4.57-12.2-6.64-11.29-13.6"></path>
        <path class="cls-13" d="M42.05,24.61c.58-1.84.48-3.99-.51-5.85-1.42-2.67-3.72-3.86-7.56-6.56-3.84-2.7-4.36-5.74-4.36-5.74-.46,2.83,2.2,5.14,2.98,5.76.78.63,3.69,2.59,5.3,3.83,1.63,1.25,3.99,3.48,3.3,7.3-.33,1.85-1.4,3.51-4.08,6.08h1.27s2.39-2.01,3.66-4.83"></path>
        <path class="cls-9" d="M31.79,12.14s0,0,0,0c2.2,1.81,5.09,3.55,6.32,4.8,1.23,1.25,2.91,3.68,1.81,6.99s-4.59,5.5-4.59,5.5h1.8c2.68-2.58,3.75-4.23,4.08-6.08.04-.2.06-.39.08-.58.05-2.78-.97-3.97-1.76-4.99-.88-1.14-3.73-3.1-4.86-3.76-.72-.42-2.04-1.31-2.89-1.89Z"></path>
        <path class="cls-1" d="M30.2,17.85l1.04-.62s1.63.74,4.75.95c0,0-2.54.91-5.79-.33"></path>
        <path class="cls-10" d="M36.22,11.91c.58.47,1.81,1.47,2.31,1.89,2.27,1.61,4.35,3.53,4.91,6.62.58,3.22-1.59,6.76-3.8,9.02,0,0,.06-.02.17-.06,3.81-3.72,4.97-5.44,4.74-8.49-.24-3.17-4.37-6.08-4.87-6.46-.43-.33-2.92-2.15-3.46-2.52,0,0,0,0-.01,0Z"></path>
        <path class="cls-8" d="M36.23,11.91c.16.15,5.81,4.04,7.31,6.04,1.27,1.69,1.95,4.09.74,6.59l1.3-.39s1.17-2.9-1.26-6.12c-2.04-2.7-7.05-5.38-8.09-6.12Z"></path>
        <path class="cls-2" d="M32.53,14.11c2.14,1.57,4.51,2.42,5.79,4.47.9,1.45,1.83,4.5-1.13,7.74-.23.25-.53.55-.87.85h1.62c.79-.88,1.55-1.97,1.97-3.24,1.1-3.31-.58-5.74-1.81-6.99-1.23-1.25-4.12-2.99-6.32-4.8-1.41-1.16-2.12-2.14-2.49-2.78-.06,1.95,2.21,4,3.23,4.75"></path>
        <path class="cls-11" d="M32.33,16.16c1.96,1.18,3.84,1.53,5.24,3.37,1.36,1.8.54,3.95-.82,5.59h1.4c.97-1.51,1.18-2.93,1.03-4.13-.55-3.15-3.88-4.62-5.73-5.55-2.26-1.14-3.24-2.45-3.24-2.45l-.99.56c.7.89,1.62,1.71,3.12,2.62"></path>
        <path class="cls-7" d="M40.43,11.71c2.18,1.25,4.7,1.23,6.81,2.23.89.42,2.15,1.02,3.08,1.83v-.04s0-.01,0-.02c-.06-.42-.22-.83-.42-1.2-.55-.43-1.4-1.02-2.5-1.52-1.67-.77-4.02-1.08-4.02-1.08,0,0,1.82-.21,4.1.87,1,.47,1.72.98,2.22,1.4-.2-.3-.42-.57-.64-.8-1-1.02-2.61-1.96-5.16-2.01-4.92-.09-6.8-3.25-7.61-4.53,0,0,.25,2.65,4.14,4.88"></path>
      </g>
      <g>
        <path class="cls-12" d="M.52.58h1.58c.22,0,.43.02.63.06.2.04.38.11.54.21.16.1.28.23.38.4.09.17.14.38.14.64,0,.33-.09.61-.27.83-.18.22-.44.36-.78.41l1.21,2.01h-.98l-1.05-1.93h-.59v1.93h-.81V.58ZM1.96,2.51c.12,0,.23,0,.35-.02.12-.01.22-.04.32-.08.1-.04.17-.1.23-.19.06-.08.09-.2.09-.35,0-.13-.03-.24-.08-.32-.06-.08-.13-.14-.22-.18-.09-.04-.19-.07-.3-.08s-.22-.02-.32-.02h-.7v1.23h.63Z"></path>
        <path class="cls-12" d="M4.55.58h.81v4.55h-.81V.58Z"></path>
        <path class="cls-12" d="M6.11,2.87c0-.36.06-.7.18-.99.12-.3.29-.55.5-.76.21-.21.46-.37.76-.49.29-.11.62-.17.97-.17.36,0,.68.05.98.16s.55.27.76.48c.21.21.38.46.5.76.12.3.18.63.18.99s-.06.68-.18.97c-.12.29-.29.54-.5.75-.21.21-.47.37-.76.49-.3.12-.62.18-.98.18-.35,0-.67-.06-.97-.17-.29-.11-.55-.27-.76-.48-.21-.21-.38-.46-.5-.75-.12-.29-.18-.61-.18-.97ZM6.96,2.82c0,.24.04.47.11.67.07.21.18.38.32.53.14.15.3.27.49.35.19.09.4.13.64.13s.45-.04.64-.13c.19-.09.36-.2.5-.35.14-.15.24-.33.32-.53.07-.21.11-.43.11-.67,0-.23-.04-.44-.11-.64-.08-.2-.18-.37-.32-.52-.14-.15-.3-.26-.5-.35-.19-.08-.41-.13-.64-.13s-.45.04-.64.13c-.19.08-.35.2-.49.35-.14.15-.24.32-.32.52-.08.2-.11.41-.11.64Z"></path>
        <path class="cls-12" d="M3.64,7.02c-.17-.18-.33-.3-.49-.36-.16-.06-.31-.09-.47-.09-.24,0-.45.04-.64.13-.19.08-.35.2-.49.35-.14.15-.24.32-.32.52-.08.2-.11.41-.11.64,0,.24.04.47.11.67.07.21.18.38.32.53.14.15.3.27.49.35.19.09.4.13.64.13.18,0,.36-.04.54-.13.17-.09.34-.23.49-.42l.67.48c-.21.28-.46.49-.75.62s-.61.19-.94.19c-.35,0-.67-.06-.97-.17-.29-.11-.55-.27-.76-.48-.21-.21-.38-.46-.5-.75-.12-.29-.18-.61-.18-.97s.06-.7.18-.99c.12-.3.29-.55.5-.76.21-.21.46-.37.76-.49.29-.11.62-.17.97-.17.31,0,.59.05.86.16.26.11.51.29.74.56l-.63.46Z"></path>
        <path class="cls-12" d="M6.4,5.95h.7l1.96,4.55h-.93l-.42-1.04h-1.97l-.41,1.04h-.91l1.98-4.55ZM7.42,8.77l-.7-1.85-.71,1.85h1.41Z"></path>
        <path class="cls-12" d="M9.56,5.95h1.53c.22,0,.43.02.63.06.2.04.38.11.54.22.15.1.28.24.37.41.09.17.14.38.14.63,0,.29-.05.52-.15.69-.1.18-.23.31-.4.41-.17.1-.36.16-.58.2-.22.03-.45.05-.69.05h-.58v1.88h-.81v-4.55ZM10.86,7.93c.12,0,.24,0,.36-.01.12,0,.24-.03.34-.08.1-.04.19-.11.26-.19.07-.09.1-.21.1-.36,0-.14-.03-.25-.09-.34-.06-.08-.14-.15-.23-.19-.09-.05-.2-.07-.32-.09s-.23-.02-.33-.02h-.58v1.28h.49Z"></path>
        <path class="cls-12" d="M13.47,5.95h.81v4.55h-.81v-4.55Z"></path>
        <path class="cls-12" d="M16.21,6.69h-1.39v-.73h3.6v.73h-1.39v3.82h-.81v-3.82Z"></path>
        <path class="cls-12" d="M19.85,5.95h.7l1.96,4.55h-.93l-.42-1.04h-1.97l-.41,1.04h-.91l1.98-4.55ZM20.88,8.77l-.7-1.85-.71,1.85h1.41Z"></path>
        <path class="cls-12" d="M23.02,5.95h.81v3.82h1.93v.73h-2.74v-4.55Z"></path>
        <path class="cls-12" d="M.52,11.33h1.79c.3,0,.59.05.87.14.28.09.52.23.74.42.21.19.39.43.51.71.13.29.19.62.19,1.01s-.07.73-.22,1.01c-.15.29-.34.52-.57.71-.23.19-.49.33-.78.42-.29.09-.56.14-.84.14H.52v-4.55ZM1.93,15.15c.25,0,.49-.03.72-.09s.42-.15.59-.27c.17-.12.3-.28.4-.48.1-.19.14-.43.14-.71s-.04-.51-.13-.71c-.09-.2-.2-.36-.36-.48-.15-.12-.33-.21-.54-.27-.21-.06-.44-.09-.68-.09h-.74v3.09h.6Z"></path>
        <path class="cls-12" d="M5.15,13.62c0-.36.06-.7.18-.99.12-.3.29-.55.5-.76.21-.21.46-.37.76-.49.29-.11.62-.17.97-.17.36,0,.68.05.98.16s.55.27.76.48c.21.21.38.46.5.76.12.3.18.63.18.99s-.06.68-.18.97c-.12.29-.29.54-.5.75-.21.21-.47.37-.76.49-.3.12-.62.18-.98.18-.35,0-.67-.06-.97-.17-.29-.11-.55-.27-.76-.48-.21-.21-.38-.46-.5-.75-.12-.29-.18-.61-.18-.97ZM6,13.57c0,.24.04.47.11.67.07.21.18.38.32.53.14.15.3.27.49.35.19.09.4.13.64.13s.45-.04.64-.13c.19-.09.36-.2.5-.35.14-.15.24-.33.32-.53.07-.21.11-.43.11-.67,0-.23-.04-.44-.11-.64-.08-.2-.18-.37-.32-.52-.14-.15-.3-.26-.5-.35-.19-.08-.41-.13-.64-.13s-.45.04-.64.13c-.19.08-.35.2-.49.35-.14.15-.24.32-.32.52-.08.2-.11.41-.11.64Z"></path>
      </g>
    </g>
  </g>
</svg>
